<?xml version="1.0" standalone="no"?>
<!DOCTYPE svg PUBLIC "-//W3C//DTD SVG 20010904//EN"
 "http://www.w3.org/TR/2001/REC-SVG-20010904/DTD/svg10.dtd">
<svg version="1.0" xmlns="http://www.w3.org/2000/svg"
 width="256.000000pt" height="256.000000pt" viewBox="0 0 256.000000 256.000000"
 preserveAspectRatio="xMidYMid meet">
<metadata>
Created by potrace 1.11, written by Peter Selinger 2001-2013
</metadata>
<g transform="translate(0.000000,256.000000) scale(0.100000,-0.100000)"
fill="#000000" stroke="none">
<path d="M1095 2494 c-97 -15 -205 -45 -279 -78 -31 -14 -56 -22 -56 -18 0 4
-4 2 -8 -4 -4 -6 -23 -19 -42 -29 -19 -10 -53 -29 -75 -43 -22 -14 -41 -25
-42 -24 -2 1 -11 -6 -22 -15 -30 -28 -64 -53 -74 -53 -4 0 -5 -4 -2 -10 3 -5
1 -10 -4 -10 -20 0 -184 -174 -174 -184 4 -3 2 -6 -4 -6 -12 0 -76 -97 -116
-175 -97 -188 -139 -374 -132 -595 2 -74 6 -149 8 -165 18 -107 62 -257 93
-316 8 -16 11 -29 7 -29 -5 0 -3 -4 3 -8 12 -8 49 -84 46 -94 -1 -5 5 -8 13
-8 8 0 15 -9 15 -20 0 -11 5 -20 10 -20 6 0 10 -9 10 -20 0 -11 6 -20 13 -20
7 0 21 -18 31 -40 10 -22 22 -38 27 -35 5 4 9 -1 9 -9 0 -9 7 -16 16 -16 8 0
12 -4 9 -10 -3 -5 -2 -10 3 -10 5 0 15 -11 22 -25 7 -13 16 -23 19 -20 4 2 17
-10 30 -26 13 -16 30 -29 38 -29 8 0 12 -4 9 -8 -3 -5 6 -15 19 -22 13 -7 22
-17 19 -22 -3 -4 5 -8 17 -8 19 0 20 2 8 17 -11 15 -10 15 8 -1 13 -10 20 -23
17 -27 -3 -5 0 -9 6 -9 6 0 8 -5 4 -11 -5 -8 1 -10 19 -7 15 3 24 2 22 -2 -2
-4 2 -16 10 -26 12 -15 14 -15 9 -3 -3 10 0 20 7 25 7 4 10 3 5 -4 -3 -6 -2
-13 4 -17 6 -4 8 -10 5 -15 -3 -4 3 -6 13 -3 21 5 56 -23 47 -38 -4 -5 -1 -9
5 -9 7 0 9 9 6 23 -3 12 -3 16 0 9 3 -6 11 -9 17 -5 6 4 8 0 4 -10 -7 -18 18
-44 27 -28 4 6 13 8 21 5 8 -4 12 -10 9 -15 -3 -5 -2 -9 3 -8 18 3 34 -1 29
-9 -2 -4 4 -9 15 -9 10 -1 19 3 19 8 0 6 -4 8 -9 5 -5 -3 -14 1 -21 9 -9 10
-9 15 -1 15 6 0 11 -5 11 -11 0 -5 5 -7 10 -4 6 3 14 -5 19 -18 9 -24 33 -48
30 -30 -3 19 2 33 12 33 5 0 7 -5 3 -12 -5 -8 -2 -9 10 -5 13 5 17 3 13 -7 -4
-10 -1 -13 8 -9 8 3 12 10 8 17 -4 6 1 4 12 -4 10 -8 20 -14 22 -12 11 8 22
-1 17 -16 -5 -14 -4 -15 5 -2 6 8 11 11 11 6 0 -5 7 -3 15 4 9 7 18 10 22 6 3
-3 1 -6 -5 -6 -7 0 -12 -8 -12 -17 0 -13 3 -15 8 -5 10 15 58 9 55 -7 -2 -7 5
-8 21 -1 16 6 28 5 36 -3 9 -9 11 -9 7 -1 -4 7 0 15 9 18 10 4 13 2 9 -7 -4
-6 1 -3 11 8 14 17 16 17 11 3 -4 -10 -2 -18 3 -18 6 0 10 5 10 10 0 6 5 10
11 10 5 0 7 -5 4 -10 -3 -6 -2 -10 4 -10 5 0 13 5 16 10 3 6 12 10 18 10 8 0
8 -3 -2 -9 -9 -6 -4 -10 17 -13 21 -3 28 0 25 8 -2 7 1 15 8 20 8 4 10 3 5 -4
-4 -7 -2 -12 4 -12 6 0 8 -5 4 -12 -5 -7 -3 -8 5 -4 7 5 10 13 8 20 -3 7 4 12
18 12 15 0 21 -5 18 -13 -3 -7 -1 -13 5 -13 5 0 13 7 16 16 3 8 10 12 16 9 5
-3 10 0 10 7 1 7 8 2 16 -12 14 -23 15 -23 11 -3 -4 17 -1 21 14 18 11 -2 24
-7 31 -11 8 -5 9 -2 4 11 -5 15 -4 16 9 5 8 -7 12 -17 9 -24 -3 -6 7 3 21 19
15 17 24 25 21 19 -3 -7 0 -14 8 -17 10 -4 13 1 10 16 -2 12 -2 16 2 10 7 -16
25 -17 22 -1 -2 7 6 12 18 13 11 0 28 6 36 12 12 10 15 10 15 -2 0 -8 -4 -12
-8 -9 -4 2 -10 0 -14 -5 -3 -5 -14 -8 -25 -6 -13 3 -17 -1 -13 -12 5 -12 7
-12 14 -1 5 7 9 9 9 4 0 -5 6 -4 13 2 6 6 16 11 20 11 14 1 36 28 29 36 -4 5
-1 5 6 1 7 -4 20 -2 29 6 9 7 14 8 10 2 -4 -7 0 -15 9 -18 8 -3 12 -2 9 4 -3
6 -3 10 2 11 45 4 91 31 85 49 -4 12 -3 13 10 2 12 -10 17 -10 26 1 8 9 8 17
2 25 -6 7 -7 10 -3 7 3 -3 14 2 23 10 10 9 21 15 26 14 29 -5 46 2 40 17 -6
15 -4 15 10 3 16 -13 16 -12 4 11 -10 21 -10 23 1 13 13 -13 38 -19 26 -6 -13
13 43 61 66 57 12 -2 16 -1 9 2 -9 4 -5 13 13 30 15 13 31 21 37 18 8 -5 9 -1
5 10 -6 14 -3 17 9 12 15 -6 15 -4 3 11 -12 14 -12 16 0 8 11 -6 13 -4 7 10
-5 15 -4 16 9 5 13 -11 14 -10 10 3 -4 8 -1 18 6 23 8 4 10 3 5 -4 -4 -7 -2
-12 5 -12 6 0 9 8 6 20 -3 11 2 25 12 32 14 12 15 11 2 -5 -7 -9 -9 -17 -3
-17 12 0 24 29 16 41 -3 5 -2 9 3 8 23 -4 32 4 38 31 4 16 10 30 14 30 9 0 35
51 33 63 -1 4 3 7 9 7 5 0 8 4 5 9 -3 5 1 12 10 15 8 3 12 10 9 16 -3 5 -1 10
6 10 7 0 9 3 6 6 -4 4 0 19 8 33 33 62 73 198 92 316 4 28 8 127 8 220 -1 152
-4 181 -28 277 -40 155 -111 315 -178 400 -16 20 -29 39 -29 43 0 16 -157 177
-225 231 -27 21 -52 42 -53 47 -2 4 -8 5 -13 1 -5 -3 -9 0 -9 5 0 6 -5 11 -10
11 -6 0 -20 9 -32 20 -12 10 -25 17 -29 14 -4 -2 -11 1 -14 6 -19 31 -257 119
-370 137 -16 3 -50 9 -75 13 -64 12 -251 9 -345 -6z m207 -1219 c13 -17 9 -25
-12 -25 -13 0 -20 7 -20 20 0 20 19 23 32 5z m618 -1069 c0 -3 -4 -8 -10 -11
-5 -3 -10 -1 -10 4 0 6 5 11 10 11 6 0 10 -2 10 -4z m-61 -32 c-6 -8 -15 -12
-18 -8 -3 4 0 9 7 11 6 3 9 10 6 15 -4 7 -2 8 5 4 9 -6 9 -11 0 -22z m-29 -12
c0 -4 -10 -9 -22 -9 -18 -2 -20 0 -8 7 18 12 30 13 30 2z m-1040 -22 c0 -5 -2
-10 -4 -10 -3 0 -8 5 -11 10 -3 6 -1 10 4 10 6 0 11 -4 11 -10z m127 -52 c-3
-8 -6 -5 -6 6 -1 11 2 17 5 13 3 -3 4 -12 1 -19z m651 -23 c-3 -3 -9 2 -12 12
-6 14 -5 15 5 6 7 -7 10 -15 7 -18z m-438 -1 c0 -8 -19 -13 -24 -6 -3 5 1 9 9
9 8 0 15 -2 15 -3z m53 -11 c3 -5 -6 -9 -20 -10 -19 -1 -22 1 -12 8 17 11 26
11 32 2z"/>
<path d="M2075 320 c-10 -11 -14 -20 -9 -20 5 0 15 9 22 20 7 11 11 20 9 20
-2 0 -12 -9 -22 -20z"/>
<path d="M1945 229 c-9 -14 -2 -20 14 -10 8 6 9 11 3 15 -6 3 -14 1 -17 -5z"/>
<path d="M690 176 c0 -2 7 -7 16 -10 8 -3 12 -2 9 4 -6 10 -25 14 -25 6z"/>
<path d="M1735 109 c-3 -4 2 -6 10 -5 21 3 28 13 10 13 -9 0 -18 -4 -20 -8z"/>
<path d="M985 59 c-3 -4 2 -6 10 -5 21 3 28 13 10 13 -9 0 -18 -4 -20 -8z"/>
<path d="M1440 45 c0 -2 6 -8 13 -14 10 -8 14 -7 14 2 0 8 -6 14 -14 14 -7 0
-13 -1 -13 -2z"/>
</g>
</svg>
